<svg width="20" height="20" viewBox="0 0 20 20" fill="none" xmlns="http://www.w3.org/2000/svg">
<path d="M2.40926 10.8449C2.23599 10.5972 2.14307 10.3022 2.14307 9.99993C2.14307 9.69763 2.23599 9.40265 2.40926 9.15493C3.53283 7.56422 6.29926 4.28564 9.99997 4.28564C13.7007 4.28564 16.4671 7.56422 17.5907 9.15493C17.7639 9.40265 17.8569 9.69763 17.8569 9.99993C17.8569 10.3022 17.7639 10.5972 17.5907 10.8449C16.4671 12.4356 13.7007 15.7142 9.99997 15.7142C6.29926 15.7142 3.53283 12.4356 2.40926 10.8449Z" stroke="#171A1F" stroke-width="1.71429" stroke-miterlimit="10" stroke-linecap="square"/>
<path d="M9.99997 12.8574C11.5779 12.8574 12.8571 11.5782 12.8571 10.0002C12.8571 8.42225 11.5779 7.14307 9.99997 7.14307C8.42201 7.14307 7.14282 8.42225 7.14282 10.0002C7.14282 11.5782 8.42201 12.8574 9.99997 12.8574Z" stroke="#171A1F" stroke-width="1.71429" stroke-miterlimit="10" stroke-linecap="square"/>
<path d="M2.85718 17.1426L17.1429 2.85693" stroke="#171A1F" stroke-width="1.71429" stroke-miterlimit="10" stroke-linecap="square"/>
</svg>
