<svg width="17" height="16" viewBox="0 0 17 16" fill="none" xmlns="http://www.w3.org/2000/svg">
<path d="M14.9 8.00007C14.8998 6.77704 14.5492 5.57967 13.8896 4.54972C13.2301 3.51977 12.2892 2.70037 11.1784 2.18852C10.0677 1.67667 8.8335 1.49381 7.62203 1.66158C6.41056 1.82936 5.27253 2.34074 4.34267 3.1352C3.41281 3.92965 2.73005 4.9739 2.37523 6.14433C2.02041 7.31476 2.00838 8.56235 2.34057 9.7394C2.67276 10.9165 3.33526 11.9737 4.24964 12.7859C5.16401 13.5981 6.29197 14.1314 7.49998 14.3225L7.49998 9.85007H5.87518V8.00007L7.49998 8.00007L7.49998 6.59007C7.49998 4.98607 8.45558 4.10007 9.91718 4.10007C10.3972 4.10673 10.8761 4.14844 11.35 4.22487V5.80007H10.5428C10.4052 5.7818 10.2653 5.79472 10.1334 5.83787C10.0016 5.88102 9.88108 5.95329 9.78093 6.04933C9.68078 6.14537 9.60352 6.26272 9.55489 6.39268C9.50625 6.52264 9.48748 6.66187 9.49998 6.80007V8.00007H11.2752L10.9912 9.85007H9.49998L9.49998 14.3225C11.0055 14.0843 12.3766 13.3166 13.3665 12.1576C14.3564 10.9986 14.9002 9.52431 14.9 8.00007Z" fill="#335CA6"/>
</svg>
