<svg width="32" height="32" viewBox="0 0 32 32" fill="none" xmlns="http://www.w3.org/2000/svg">
<path d="M16 8.80005L16 16H23.2" stroke="white" stroke-width="1.92" stroke-miterlimit="10" stroke-linecap="square"/>
<path d="M5.2944 21.4264C6.62262 24.0498 8.86755 26.0944 11.6033 27.1724C14.3391 28.2504 17.3753 28.2867 20.1361 27.2745C22.8969 26.2623 25.1901 24.272 26.5807 21.6812C27.9714 19.0903 28.3627 16.0791 27.6804 13.2189C26.9981 10.3587 25.2897 7.84834 22.8794 6.16416C20.469 4.47998 17.5243 3.73911 14.6038 4.08209C11.6834 4.42507 8.99049 5.82804 7.0359 8.02485C5.0813 10.2217 4.00102 13.0595 4 16" stroke="white" stroke-width="1.92" stroke-miterlimit="10"/>
<path d="M6.0937 27.824L5.2937 21.424L11.6937 22.224" stroke="white" stroke-width="1.92" stroke-miterlimit="10" stroke-linecap="square"/>
</svg>
